<?xml version="1.0" encoding="utf-8"?>
<!-- Generator: Adobe Illustrator 21.0.0, SVG Export Plug-In . SVG Version: 6.00 Build 0)  -->
<svg version="1.1" id="图层_1" xmlns="http://www.w3.org/2000/svg" xmlns:xlink="http://www.w3.org/1999/xlink" x="0px" y="0px"
	 viewBox="0 0 48 48" style="enable-background:new 0 0 48 48;" xml:space="preserve">
<style type="text/css">
	.st0{fill:#040000;}
</style>
<path class="st0" d="M26,24h1V14h-8v-4h-1v4h-8v10h1v-2h7v9h1v-9h7V24z M18,21h-7v-6h7V21z M19,21v-6h7v6H19z M16,40H8.2
	C7,40,6,38.4,6,37.2V7.6C6,6.2,7.4,6,8.2,6h29.5C38.6,6,40,6.2,40,7.6V16c0,0.6,0.4,1,1,1s1-0.4,1-1V7.6C42,5.5,40.3,4,37.8,4H8.2
	C5.7,4,4,5.5,4,7.6v29.5C4,39.5,5.8,42,8.2,42H16c0.6,0,1-0.4,1-1S16.6,40,16,40z M41,19.5c-1.7,0-3,1.3-3,3c0,1.3,0.8,2.4,2,2.8
	v11.9c0,1.2-1,2.8-2.2,2.8h-12c-0.4-1.2-1.5-2-2.8-2c-1.7,0-3,1.3-3,3s1.3,3,3,3c1.3,0,2.4-0.8,2.8-2h12c2.4,0,4.2-2.5,4.2-4.8V25.3
	c1.2-0.4,2-1.5,2-2.8C44,20.8,42.7,19.5,41,19.5z M23,43c-1.1,0-2-0.9-2-2s0.9-2,2-2s2,0.9,2,2S24.1,43,23,43z M41,24.5
	c-1.1,0-2-0.9-2-2s0.9-2,2-2s2,0.9,2,2S42.1,24.5,41,24.5z M27.4,35.6l0.9,0.4l1.2-3H34v-0.8l1.5,3.8l0.9-0.4L32.3,25h-0.9
	L27.4,35.6z M33.9,32h-4.1l2-5.3L33.9,32z"/>
</svg>
